<svg xmlns="http://www.w3.org/2000/svg" xmlns:xlink="http://www.w3.org/1999/xlink" width="500" zoomAndPan="magnify" viewBox="0 0 375 374.999991" height="500" preserveAspectRatio="xMidYMid meet" version="1.0"><defs><clipPath id="a22e927047"><path d="M 63.320312 63.863281 L 210.851562 63.863281 L 210.851562 311.117188 L 63.320312 311.117188 Z M 63.320312 63.863281 " clip-rule="nonzero"/></clipPath><clipPath id="3350c6ea7f"><path d="M 164.523438 63.863281 L 311.570312 63.863281 L 311.570312 311.117188 L 164.523438 311.117188 Z M 164.523438 63.863281 " clip-rule="nonzero"/></clipPath></defs><g clip-path="url(#a22e927047)"><path fill="#27292d" d="M 170.234375 170.546875 C 170.234375 165.464844 173.570312 161.417969 177.65625 161.417969 L 181.742188 161.417969 L 181.742188 101.015625 C 181.742188 94.585938 180.105469 87.859375 177.1875 83.820312 C 174.433594 79.980469 170.183594 76.410156 159.0625 76.410156 C 146.628906 76.410156 139.144531 74.945312 121.621094 87.121094 C 125.941406 84.117188 131.464844 90.75 135.550781 94.585938 C 136.804688 95.730469 137.054688 98.007812 136.136719 99.667969 C 135.132812 101.222656 133.300781 101.535156 131.964844 100.394531 C 129.210938 97.800781 126.042969 95.933594 122.957031 95.003906 C 114.699219 92.308594 108.195312 94.378906 101.9375 101.847656 C 98.769531 105.578125 96.183594 110.347656 94.515625 115.847656 C 95.765625 115.429688 97.015625 115.117188 98.269531 115.015625 C 102.1875 114.394531 106.441406 114.601562 110.527344 116.050781 C 112.113281 116.574219 113.03125 118.542969 112.613281 120.511719 C 112.195312 122.480469 110.613281 123.621094 109.027344 123.105469 C 96.933594 119.058594 87.839844 124.351562 82.671875 138.140625 C 80.667969 143.53125 79.5 149.652344 79.5 156.183594 C 79.5 159.921875 79.917969 163.546875 80.667969 167.179688 C 83.503906 164.273438 86.59375 162.097656 89.679688 160.644531 C 95.765625 157.84375 102.105469 157.535156 107.691406 158.984375 C 108.695312 155.5625 110.277344 152.039062 112.28125 148.820312 C 114.699219 144.882812 117.785156 141.355469 121.539062 138.660156 C 122.875 137.726562 124.707031 138.242188 125.542969 140.007812 C 126.292969 141.769531 125.875 144.050781 124.457031 144.984375 C 121.371094 147.265625 118.871094 150.066406 116.867188 153.28125 C 115.199219 156.082031 113.867188 159.085938 113.03125 162.097656 C 112.699219 163.132812 112.53125 164.691406 111.945312 165.621094 C 111.195312 166.867188 109.945312 167.382812 108.695312 166.972656 C 103.691406 164.898438 97.515625 164.792969 91.761719 167.488281 C 87.507812 169.457031 83.421875 172.984375 80.167969 178.273438 C 78.667969 181.28125 77.414062 184.496094 76.582031 188.125 C 75.664062 191.960938 75.082031 196.210938 75.082031 200.570312 C 75.082031 207.207031 76.25 213.324219 78.25 218.613281 C 79.835938 222.867188 82.003906 226.699219 84.589844 229.707031 C 85.757812 224.628906 87.757812 219.546875 90.761719 215.085938 C 94.515625 209.386719 99.769531 204.613281 106.609375 202.125 C 107.691406 198.183594 109.363281 194.140625 111.613281 190.511719 C 114.03125 186.570312 117.117188 183.042969 120.871094 180.347656 C 122.207031 179.414062 124.039062 179.933594 124.875 181.695312 C 125.710938 183.460938 125.207031 185.738281 123.789062 186.675781 C 120.789062 188.953125 118.203125 191.753906 116.199219 194.96875 C 114.367188 198.078125 112.949219 201.398438 112.113281 204.824219 C 113.367188 207.929688 115.285156 210.941406 117.535156 213.53125 C 119.953125 216.332031 122.875 218.613281 126.210938 220.0625 C 127.710938 220.789062 128.460938 222.867188 127.960938 224.730469 C 127.378906 226.699219 125.710938 227.636719 124.125 226.910156 C 120.121094 225.148438 116.535156 222.34375 113.617188 218.921875 C 111.113281 216.125 109.027344 212.910156 107.441406 209.488281 C 102.269531 211.558594 98.183594 215.296875 95.265625 219.753906 C 86.507812 233.027344 87.925781 251.488281 96.601562 264.347656 C 100.769531 270.671875 106.527344 274.816406 112.949219 275.753906 C 112.949219 273.367188 113.113281 270.980469 113.449219 268.597656 C 114.117188 263.722656 115.617188 258.851562 117.871094 254.289062 C 118.785156 252.625 120.539062 252.109375 121.957031 253.144531 C 123.289062 254.183594 123.707031 256.464844 122.875 258.226562 C 120.953125 261.855469 119.789062 265.902344 119.203125 269.839844 C 117.953125 278.550781 119.285156 286.644531 124.960938 292.449219 C 127.460938 295.039062 130.464844 296.496094 133.714844 296.496094 C 137.804688 296.496094 141.558594 294.105469 144.308594 290.269531 C 147.226562 286.226562 148.980469 280.417969 148.980469 273.992188 C 148.980469 269.945312 151.648438 266.730469 154.902344 266.730469 C 158.15625 266.730469 160.742188 269.945312 160.742188 273.992188 C 160.742188 284.050781 157.820312 293.277344 153.066406 299.914062 C 148.148438 306.863281 141.308594 311.117188 133.714844 311.117188 C 127.628906 311.117188 122.039062 308.417969 117.535156 303.753906 C 113.949219 300.121094 111.113281 295.351562 109.195312 289.753906 C 100.6875 287.886719 93.179688 282.078125 87.59375 273.675781 C 81.835938 265.070312 78.167969 253.871094 77.582031 241.53125 C 73.496094 236.96875 70.074219 231.265625 67.65625 224.835938 C 64.90625 217.574219 63.320312 209.28125 63.320312 200.570312 C 63.320312 194.761719 64.070312 189.160156 65.320312 183.871094 C 66.324219 179.621094 67.742188 175.578125 69.492188 171.949219 C 68.410156 166.761719 67.742188 161.472656 67.742188 156.183594 C 67.742188 147.476562 69.324219 139.28125 71.996094 132.023438 C 74.582031 125.28125 78.085938 119.371094 82.421875 114.703125 C 84.671875 105.476562 88.59375 97.386719 93.847656 91.269531 C 98.851562 85.359375 107.03125 83.195312 112.210938 78.253906 C 128.628906 62.597656 153.78125 63.890625 158.785156 63.890625 C 169.296875 63.890625 180.074219 68.960938 185.832031 75.089844 C 192.324219 82.007812 193.503906 90.953125 193.503906 101.015625 L 193.503906 161.417969 L 197.675781 161.417969 C 201.761719 161.417969 205.097656 165.464844 205.097656 170.546875 C 205.097656 178.738281 205.097656 186.824219 205.097656 194.914062 C 208.097656 194.914062 210.6875 196.675781 210.6875 200.929688 C 210.6875 204.144531 208.601562 206.839844 205.933594 206.839844 L 198.757812 206.839844 L 198.757812 225.816406 C 198.757812 230.378906 193.171875 230.378906 193.171875 225.816406 L 193.171875 206.839844 L 182.160156 206.839844 L 182.160156 225.816406 C 182.160156 230.378906 176.488281 230.378906 176.488281 225.816406 L 176.488281 206.839844 L 169.398438 206.839844 C 166.730469 206.839844 164.5625 204.144531 164.5625 200.929688 C 164.5625 196.675781 167.230469 194.914062 170.234375 194.914062 C 170.234375 186.824219 170.234375 170.546875 170.234375 170.546875 " fill-opacity="1" fill-rule="evenodd"/></g><g clip-path="url(#3350c6ea7f)"><path fill="#27292d" d="M 311.675781 174.410156 C 311.675781 165.703125 310.089844 157.40625 307.335938 150.144531 C 304.917969 143.714844 301.496094 138.011719 297.410156 133.449219 C 296.828125 121.109375 293.15625 109.910156 287.402344 101.304688 C 281.8125 92.902344 274.304688 87.09375 265.796875 85.226562 C 263.878906 79.628906 261.046875 74.859375 257.457031 71.226562 C 252.953125 66.5625 247.367188 63.863281 241.277344 63.863281 C 233.6875 63.863281 226.847656 68.117188 221.925781 75.066406 C 217.171875 81.703125 214.253906 90.929688 214.253906 100.988281 C 214.253906 105.035156 216.839844 108.25 220.09375 108.25 C 223.34375 108.25 226.015625 105.035156 226.015625 100.988281 C 226.015625 94.5625 227.765625 88.753906 230.683594 84.710938 C 233.4375 80.875 237.191406 78.484375 241.277344 78.484375 C 244.53125 78.484375 247.53125 79.941406 250.035156 82.53125 C 255.707031 88.335938 257.042969 96.429688 255.789062 105.140625 C 255.207031 109.078125 254.039062 113.125 252.121094 116.753906 C 251.285156 118.515625 251.703125 120.796875 253.039062 121.835938 C 254.457031 122.871094 256.207031 122.351562 257.125 120.691406 C 259.375 116.128906 260.878906 111.257812 261.546875 106.382812 C 261.882812 103.996094 262.046875 101.613281 262.046875 99.230469 C 268.46875 100.160156 274.222656 104.308594 278.394531 110.632812 C 287.066406 123.492188 288.488281 141.953125 279.730469 155.226562 C 276.808594 159.683594 272.722656 163.421875 267.550781 165.492188 C 265.96875 162.070312 263.878906 158.855469 261.378906 156.054688 C 258.457031 152.636719 254.875 149.832031 250.871094 148.074219 C 249.285156 147.34375 247.617188 148.28125 247.03125 150.25 C 246.53125 152.113281 247.285156 154.1875 248.785156 154.914062 C 252.121094 156.367188 255.039062 158.648438 257.457031 161.449219 C 259.710938 164.039062 261.628906 167.050781 262.882812 170.160156 C 262.046875 173.582031 260.628906 176.898438 258.792969 180.011719 C 256.792969 183.226562 254.207031 186.027344 251.203125 188.304688 C 249.785156 189.242188 249.285156 191.519531 250.121094 193.285156 C 250.953125 195.046875 252.789062 195.566406 254.121094 194.632812 C 257.875 191.9375 260.960938 188.410156 263.378906 184.46875 C 265.632812 180.839844 267.300781 176.796875 268.386719 172.855469 C 275.226562 170.363281 280.480469 165.597656 284.234375 159.894531 C 287.234375 155.433594 289.238281 150.351562 290.40625 145.273438 C 292.992188 148.28125 295.160156 152.113281 296.742188 156.367188 C 298.746094 161.65625 299.914062 167.773438 299.914062 174.410156 C 299.914062 178.765625 299.332031 183.019531 298.414062 186.855469 C 297.578125 190.484375 296.328125 193.699219 294.824219 196.707031 C 291.570312 201.996094 287.488281 205.523438 283.230469 207.492188 C 277.476562 210.1875 271.304688 210.085938 266.300781 208.007812 C 265.050781 207.597656 263.796875 208.113281 263.046875 209.359375 C 262.460938 210.289062 262.296875 211.847656 261.964844 212.882812 C 261.128906 215.890625 259.792969 218.898438 258.125 221.699219 C 256.125 224.914062 253.621094 227.710938 250.535156 229.996094 C 249.117188 230.929688 248.703125 233.210938 249.453125 234.972656 C 250.285156 236.738281 252.121094 237.253906 253.453125 236.320312 C 257.210938 233.625 260.296875 230.097656 262.714844 226.15625 C 264.714844 222.941406 266.300781 219.417969 267.300781 215.996094 C 272.886719 217.445312 279.226562 217.136719 285.316406 214.339844 C 288.402344 212.882812 291.488281 210.707031 294.324219 207.800781 C 295.074219 211.433594 295.492188 215.058594 295.492188 218.796875 C 295.492188 225.328125 294.324219 231.449219 292.324219 236.839844 C 287.152344 250.628906 278.0625 255.921875 265.96875 251.875 C 264.382812 251.359375 262.796875 252.5 262.382812 254.46875 C 261.964844 256.441406 262.882812 258.40625 264.464844 258.925781 C 268.550781 260.378906 272.804688 260.585938 276.726562 259.964844 C 277.976562 259.863281 279.226562 259.550781 280.480469 259.132812 C 278.8125 264.632812 276.226562 269.402344 273.054688 273.136719 C 266.800781 280.601562 260.296875 282.675781 252.039062 279.976562 C 248.949219 279.046875 245.78125 277.179688 243.03125 274.585938 C 241.695312 273.445312 239.859375 273.757812 238.859375 275.3125 C 237.941406 276.972656 238.191406 279.25 239.441406 280.394531 C 243.53125 284.230469 249.054688 290.859375 253.371094 287.859375 C 235.851562 300.035156 228.363281 298.570312 215.929688 298.570312 C 204.8125 298.570312 200.558594 294.996094 197.808594 291.164062 C 195.152344 287.484375 193.5625 281.585938 193.292969 275.710938 L 193.507812 275.710938 L 193.507812 275.707031 L 197.59375 275.707031 C 201.679688 275.707031 205.015625 271.664062 205.015625 266.582031 C 205.015625 266.582031 205.015625 250.300781 205.015625 242.214844 C 208.019531 242.214844 210.6875 240.453125 210.6875 236.199219 C 210.6875 232.984375 208.519531 230.289062 205.847656 230.289062 L 198.761719 230.289062 L 198.761719 230.007812 L 198.683594 230.007812 L 198.683594 246.214844 C 198.683594 250.777344 193.097656 250.777344 193.097656 246.214844 L 193.097656 230.007812 L 193.089844 230.007812 L 193.089844 230.289062 L 182.085938 230.289062 L 182.085938 246.214844 C 182.085938 250.777344 176.414062 250.777344 176.414062 246.214844 L 176.414062 230.289062 L 169.316406 230.289062 C 166.648438 230.289062 164.5625 232.984375 164.5625 236.199219 C 164.5625 240.453125 167.148438 242.214844 170.152344 242.214844 C 170.152344 250.300781 170.152344 258.390625 170.152344 266.582031 C 170.152344 271.664062 173.488281 275.707031 177.574219 275.707031 L 181.503906 275.707031 C 181.648438 285.058594 183.046875 293.375 189.164062 299.890625 C 194.917969 306.019531 205.695312 311.089844 216.207031 311.089844 C 221.214844 311.089844 246.367188 312.382812 262.785156 296.726562 C 267.960938 291.785156 276.140625 289.621094 281.148438 283.710938 C 286.402344 277.59375 290.320312 269.503906 292.574219 260.277344 C 296.910156 255.609375 300.414062 249.699219 303 242.957031 C 305.667969 235.699219 307.253906 227.503906 307.253906 218.796875 C 307.253906 213.507812 306.585938 208.21875 305.503906 203.03125 C 307.253906 199.402344 308.671875 195.359375 309.671875 191.105469 C 310.921875 185.820312 311.675781 180.21875 311.675781 174.410156 " fill-opacity="1" fill-rule="evenodd"/></g></svg>
